HIERARCHY
ROOT Root
{
  OFFSET 0.0 0.0 0.0
  CHANNELS 6 Xposition Yposition Zposition Zrotation Yrotation Xrotation
  JOINT Hips
  {
    OFFSET 0.0 100.0 0.0
    CHANNELS 6 Xposition Yposition Zposition Zrotation Yrotation Xrotation
    JOINT Spine1
    {
      OFFSET 5.003913 -0.037094 -0.013727
      CHANNELS 3 Zrotation Yrotation Xrotation
      JOINT Spine2
      {
        OFFSET 7.125363 -1e-06 0.0
        CHANNELS 3 Zrotation Yrotation Xrotation
        JOINT Chest
        {
          OFFSET 7.594027 1e-06 0.0
          CHANNELS 3 Zrotation Yrotation Xrotation
          JOINT Neck1
          {
            OFFSET 26.313086 -0.460272 -0.181672
            CHANNELS 3 Zrotation Yrotation Xrotation
            JOINT Neck2
            {
              OFFSET 8.045911 0.0 0.0
              CHANNELS 3 Zrotation Yrotation Xrotation
              JOINT Head
              {
                OFFSET 6.432774 0.0 0.0
                CHANNELS 3 Zrotation Yrotation Xrotation
                JOINT HeadEnd
                {
                  OFFSET 16.169773 0.06451 0.00362
                  CHANNELS 3 Zrotation Yrotation Xrotation
                }
                JOINT Jaw
                {
                  OFFSET 0.108741 3.12938 0.002639
                  CHANNELS 3 Zrotation Yrotation Xrotation
                }
                JOINT LeftEye
                {
                  OFFSET 4.45173 8.166359 3.206392
                  CHANNELS 3 Zrotation Yrotation Xrotation
                }
                JOINT RightEye
                {
                  OFFSET 4.436895 8.135758 -3.222429
                  CHANNELS 3 Zrotation Yrotation Xrotation
                }
              }
            }
          }
          JOINT LeftShoulder
          {
            OFFSET 23.218927 5.195579 1.621656
            CHANNELS 3 Zrotation Yrotation Xrotation
            JOINT LeftArm
            {
              OFFSET 15.902118 2e-06 -2e-06
              CHANNELS 3 Zrotation Yrotation Xrotation
              JOINT LeftForeArm
              {
                OFFSET 28.739307 0.0 -1e-06
                CHANNELS 3 Zrotation Yrotation Xrotation
                JOINT LeftHand
                {
                  OFFSET 27.093981 -4e-06 0.0
                  CHANNELS 3 Zrotation Yrotation Xrotation
                  JOINT LeftHandThumb1
                  {
                    OFFSET 2.276781 3.380274 0.83384
                    CHANNELS 3 Zrotation Yrotation Xrotation
                    JOINT LeftHandThumb2
                    {
                      OFFSET 4.705309 -1e-06 -1e-06
                      CHANNELS 3 Zrotation Yrotation Xrotation
                      JOINT LeftHandThumb3
                      {
                        OFFSET 2.798515 0.0 3e-06
                        CHANNELS 3 Zrotation Yrotation Xrotation
                        JOINT LeftHandThumbEnd
                        {
                          OFFSET 3.180793 4e-06 -4e-06
                          CHANNELS 3 Zrotation Yrotation Xrotation
                        }
                      }
                    }
                  }
                  JOINT LeftHandIndex1
                  {
                    OFFSET 3.247786 2.352677 0.137192
                    CHANNELS 3 Zrotation Yrotation Xrotation
                    JOINT LeftHandIndex2
                    {
                      OFFSET 6.367095 1e-06 0.0
                      CHANNELS 3 Zrotation Yrotation Xrotation
                      JOINT LeftHandIndex3
                      {
                        OFFSET 3.662364 0.0 0.0
                        CHANNELS 3 Zrotation Yrotation Xrotation
                        JOINT LeftHandIndex4
                        {
                          OFFSET 2.329242 4e-06 -4e-06
                          CHANNELS 3 Zrotation Yrotation Xrotation
                          JOINT LeftHandIndexEnd
                          {
                            OFFSET 2.767823 1e-06 0.0
                            CHANNELS 3 Zrotation Yrotation Xrotation
                          }
                        }
                      }
                    }
                  }
                  JOINT LeftHandMiddle1
                  {
                    OFFSET 3.163612 0.945023 -0.406112
                    CHANNELS 3 Zrotation Yrotation Xrotation
                    JOINT LeftHandMiddle2
                    {
                      OFFSET 6.276789 3e-06 0.0
                      CHANNELS 3 Zrotation Yrotation Xrotation
                      JOINT LeftHandMiddle3
                      {
                        OFFSET 4.35652 -1e-06 4e-06
                        CHANNELS 3 Zrotation Yrotation Xrotation
                        JOINT LeftHandMiddle4
                        {
                          OFFSET 2.996877 0.0 8e-06
                          CHANNELS 3 Zrotation Yrotation Xrotation
                          JOINT LeftHandMiddleEnd
                          {
                            OFFSET 2.323256 3e-06 -4e-06
                            CHANNELS 3 Zrotation Yrotation Xrotation
                          }
                        }
                      }
                    }
                  }
                  JOINT LeftHandRing1
                  {
                    OFFSET 2.882606 -0.309162 0.107445
                    CHANNELS 3 Zrotation Yrotation Xrotation
                    JOINT LeftHandRing2
                    {
                      OFFSET 6.033198 0.0 4e-06
                      CHANNELS 3 Zrotation Yrotation Xrotation
                      JOINT LeftHandRing3
                      {
                        OFFSET 4.350578 3e-06 0.0
                        CHANNELS 3 Zrotation Yrotation Xrotation
                        JOINT LeftHandRing4
                        {
                          OFFSET 2.651321 2e-06 -7e-06
                          CHANNELS 3 Zrotation Yrotation Xrotation
                          JOINT LeftHandRingEnd
                          {
                            OFFSET 1.937663 1e-06 -4e-06
                            CHANNELS 3 Zrotation Yrotation Xrotation
                          }
                        }
                      }
                    }
                  }
                  JOINT LeftHandPinky1
                  {
                    OFFSET 2.865315 -1.525436 0.575687
                    CHANNELS 3 Zrotation Yrotation Xrotation
                    JOINT LeftHandPinky2
                    {
                      OFFSET 5.54936 1e-06 -8e-06
                      CHANNELS 3 Zrotation Yrotation Xrotation
                      JOINT LeftHandPinky3
                      {
                        OFFSET 3.070974 0.0 -4e-06
                        CHANNELS 3 Zrotation Yrotation Xrotation
                        JOINT LeftHandPinky4
                        {
                          OFFSET 1.549672 1e-06 0.0
                          CHANNELS 3 Zrotation Yrotation Xrotation
                          JOINT LeftHandPinkyEnd
                          {
                            OFFSET 1.952123 0.0 0.0
                            CHANNELS 3 Zrotation Yrotation Xrotation
                          }
                        }
                      }
                    }
                  }
                }
              }
            }
          }
          JOINT RightShoulder
          {
            OFFSET 23.161716 5.296122 -1.380114
            CHANNELS 3 Zrotation Yrotation Xrotation
            JOINT RightArm
            {
              OFFSET -16.027195 -2e-06 1.1e-05
              CHANNELS 3 Zrotation Yrotation Xrotation
              JOINT RightForeArm
              {
                OFFSET -28.736639 4e-06 2e-06
                CHANNELS 3 Zrotation Yrotation Xrotation
                JOINT RightHand
                {
                  OFFSET -27.133619 6e-06 0.0
                  CHANNELS 3 Zrotation Yrotation Xrotation
                  JOINT RightHandThumb1
                  {
                    OFFSET -2.274328 -3.351035 -0.83067
                    CHANNELS 3 Zrotation Yrotation Xrotation
                    JOINT RightHandThumb2
                    {
                      OFFSET -4.703594 -3e-06 2e-06
                      CHANNELS 3 Zrotation Yrotation Xrotation
                      JOINT RightHandThumb3
                      {
                        OFFSET -2.794935 -4e-06 -3e-06
                        CHANNELS 3 Zrotation Yrotation Xrotation
                        JOINT RightHandThumbEnd
                        {
                          OFFSET -3.183852 4e-06 1e-06
                          CHANNELS 3 Zrotation Yrotation Xrotation
                        }
                      }
                    }
                  }
                  JOINT RightHandIndex1
                  {
                    OFFSET -3.253496 -2.33755 -0.127667
                    CHANNELS 3 Zrotation Yrotation Xrotation
                    JOINT RightHandIndex2
                    {
                      OFFSET -6.344434 0.0 0.0
                      CHANNELS 3 Zrotation Yrotation Xrotation
                      JOINT RightHandIndex3
                      {
                        OFFSET -3.654871 0.0 -8e-06
                        CHANNELS 3 Zrotation Yrotation Xrotation
                        JOINT RightHandIndex4
                        {
                          OFFSET -2.327586 -1e-06 0.0
                          CHANNELS 3 Zrotation Yrotation Xrotation
                          JOINT RightHandIndexEnd
                          {
                            OFFSET -2.770001 3e-06 8e-06
                            CHANNELS 3 Zrotation Yrotation Xrotation
                          }
                        }
                      }
                    }
                  }
                  JOINT RightHandMiddle1
                  {
                    OFFSET -3.168223 -0.944764 0.411762
                    CHANNELS 3 Zrotation Yrotation Xrotation
                    JOINT RightHandMiddle2
                    {
                      OFFSET -6.266691 -1e-06 -4e-06
                      CHANNELS 3 Zrotation Yrotation Xrotation
                      JOINT RightHandMiddle3
                      {
                        OFFSET -4.348901 0.0 0.0
                        CHANNELS 3 Zrotation Yrotation Xrotation
                        JOINT RightHandMiddle4
                        {
                          OFFSET -3.00024 2e-06 -4e-06
                          CHANNELS 3 Zrotation Yrotation Xrotation
                          JOINT RightHandMiddleEnd
                          {
                            OFFSET -2.321477 -4e-06 -4e-06
                            CHANNELS 3 Zrotation Yrotation Xrotation
                          }
                        }
                      }
                    }
                  }
                  JOINT RightHandRing1
                  {
                    OFFSET -2.885654 0.293261 -0.119232
                    CHANNELS 3 Zrotation Yrotation Xrotation
                    JOINT RightHandRing2
                    {
                      OFFSET -6.032835 -1e-06 -4e-06
                      CHANNELS 3 Zrotation Yrotation Xrotation
                      JOINT RightHandRing3
                      {
                        OFFSET -4.33881 0.0 -4e-06
                        CHANNELS 3 Zrotation Yrotation Xrotation
                        JOINT RightHandRing4
                        {
                          OFFSET -2.654903 -4e-06 -4e-06
                          CHANNELS 3 Zrotation Yrotation Xrotation
                          JOINT RightHandRingEnd
                          {
                            OFFSET -1.935122 0.0 4e-06
                            CHANNELS 3 Zrotation Yrotation Xrotation
                          }
                        }
                      }
                    }
                  }
                  JOINT RightHandPinky1
                  {
                    OFFSET -2.866241 1.503904 -0.60527
                    CHANNELS 3 Zrotation Yrotation Xrotation
                    JOINT RightHandPinky2
                    {
                      OFFSET -5.553177 -2e-06 0.0
                      CHANNELS 3 Zrotation Yrotation Xrotation
                      JOINT RightHandPinky3
                      {
                        OFFSET -3.062664 -1e-06 -4e-06
                        CHANNELS 3 Zrotation Yrotation Xrotation
                        JOINT RightHandPinky4
                        {
                          OFFSET -1.546529 2e-06 4e-06
                          CHANNELS 3 Zrotation Yrotation Xrotation
                          JOINT RightHandPinkyEnd
                          {
                            OFFSET -1.952341 0.0 -4e-06
                            CHANNELS 3 Zrotation Yrotation Xrotation
                          }
                        }
                      }
                    }
                  }
                }
              }
            }
          }
        }
      }
    }
    JOINT LeftLeg
    {
      OFFSET -8.443107 2.567604 10.043214
      CHANNELS 3 Zrotation Yrotation Xrotation
      JOINT LeftShin
      {
        OFFSET 43.229198 1e-06 -1e-06
        CHANNELS 3 Zrotation Yrotation Xrotation
        JOINT LeftFoot
        {
          OFFSET 42.298611 1e-06 1e-06
          CHANNELS 3 Zrotation Yrotation Xrotation
          JOINT LeftToeBase
          {
            OFFSET 14.165858 1e-06 0.0
            CHANNELS 3 Zrotation Yrotation Xrotation
            JOINT LeftToeEnd
            {
              OFFSET 6.7141 -0.234461 0.0
              CHANNELS 3 Zrotation Yrotation Xrotation
            }
          }
        }
      }
    }
    JOINT RightLeg
    {
      OFFSET -8.303923 2.592729 -10.047278
      CHANNELS 3 Zrotation Yrotation Xrotation
      JOINT RightShin
      {
        OFFSET -43.369682 0.0 1e-06
        CHANNELS 3 Zrotation Yrotation Xrotation
        JOINT RightFoot
        {
          OFFSET -42.260784 4e-06 2e-06
          CHANNELS 3 Zrotation Yrotation Xrotation
          JOINT RightToeBase
          {
            OFFSET -14.222245 -2e-06 -1e-06
            CHANNELS 3 Zrotation Yrotation Xrotation
            JOINT RightToeEnd
            {
              OFFSET -6.660062 0.232574 -2e-06
              CHANNELS 3 Zrotation Yrotation Xrotation
            }
          }
        }
      }
    }
  }
}
MOTION
Frames: 4
Frame Time: 0.03333333333333333
0.0 0.0 0.0 0.0 -0.0 0.0 0.237395 99.993912 0.064906 89.620193 3.092524 90.052299 -1.411561 0.200693 0.049651 -11.21989 -0.401337 0.810154 16.763054 -0.767626 -0.988962 20.697458 -0.805948 2.655288 -2.585921 -0.650363 1.142122 -32.817997 0.71517 0.084858 6e-06 0.0 -0.0 0.015659 0.01702 -0.049634 0.024929 0.024398 -0.053038 0.045336 0.006508 -0.0378 -124.595139 -72.106033 137.168533 30.194597 -60.042301 7.80876 26.770906 0.572758 0.178256 -2.663072 0.39867 1.298415 17.636625 -26.322733 52.411198 -19.466656 -14.395597 29.410389 0.0 -8.774821 -2e-06 16.169493 -17.713484 6.020113 -0.609776 -1.795654 -3.889328 -4.80709 -11.046811 -2.93785 4e-06 -20.976015 3e-06 -5.019969 -25.03356 -4.031881 7e-06 1e-06 -1e-06 -10.634533 -5.686969 -3.565586 10.573271 -17.922947 -3.113901 2e-06 -13.821208 1e-06 -0.50178 -31.181498 -4.027014 -11.321505 -59.615067 7.28581 -13.982712 -7.150198 -2.875041 13.772727 -8.40149 -3.218241 0.347733 -34.211544 0.771657 -0.963028 -17.73337 2.621019 1e-06 -0.0 -1e-06 -17.346415 -20.095215 -4.201783 21.757555 -1.638374 3.866426 1e-06 -6.338824 2e-06 -1.697587 -22.591742 -6.194005 -1e-06 -2e-06 -2e-06 30.633894 -74.752617 163.927246 37.919373 -56.396778 5.223374 27.100185 -0.178331 -0.014105 -5.844137 1.347089 -8.955568 22.182116 -20.375889 49.933315 -16.701818 -16.74353 28.476534 -4e-06 -12.690603 1e-06 16.093071 -17.369278 2.69286 -0.105917 -1.513855 -4.275882 -5.039042 -5.612872 -2.953555 5e-06 -11.020524 -3e-06 -6.111298 -15.895332 -3.840469 -1e-06 2e-06 -1e-06 -10.283368 -5.680287 -4.341839 11.028294 -11.302404 -2.372633 -1.384268 -14.238581 -6.32012 -0.625437 -26.924191 -3.827602 -3.959078 -49.517426 -3.816515 -13.708524 -7.363476 -3.720941 18.141153 -14.052739 -3.242676 6e-06 -18.78727 -4e-06 -0.429711 -8.456045 2.555505 -0.0 2e-06 0.0 -15.923536 -20.094482 -5.473585 30.419214 -7.190826 1.735924 3e-06 -8.162927 0.0 -1.861903 -22.861467 -6.167943 -0.0 -3e-06 -2e-06 -175.92453 -3.001303 -11.215857 10.682899 0.010677 -0.009345 -80.426743 -1.364703 -2.815276 -4.175033 1.452444 2.194221 -1.0 0.0 0.0 0.299314 -1.556967 0.767498 13.219692 -0.045492 0.006438 -79.32589 -4.627154 -5.602036 -4.280347 0.737797 1.711896 -1.000003 0.0 0.0 
0.0 0.0 0.0 0.0 -0.0 0.0 0.212508 100.018311 0.082387 89.60482 3.067996 90.056587 -1.447821 0.199066 0.03833 -11.227839 -0.375584 0.876292 16.774603 -0.760471 -1.038613 20.679468 -0.836638 2.645859 -2.562838 -0.642165 1.164739 -32.818733 0.699637 0.136003 5e-06 -0.0 -0.0 0.019479 0.018987 -0.029785 0.04747 0.026808 -0.029396 0.066877 0.00821 -0.021627 -124.680054 -72.043526 137.316177 30.28471 -60.019802 7.74022 26.718893 0.468299 0.12654 -2.665818 0.329333 1.443667 17.636635 -26.322729 52.411186 -19.466669 -14.395597 29.410393 -0.0 -8.774824 -3e-06 16.185459 -17.711374 6.006649 -0.609778 -1.795655 -3.889329 -4.807091 -11.046814 -2.93785 4e-06 -20.976021 -1e-06 -5.019971 -25.033562 -4.031885 6e-06 -1e-06 0.0 -10.634538 -5.686973 -3.565589 10.573277 -17.922956 -3.113903 2e-06 -13.821213 0.0 -0.501778 -31.181511 -4.027018 -11.339099 -59.592419 7.384384 -13.982718 -7.150201 -2.875043 13.772733 -8.401497 -3.218242 0.347737 -34.211559 0.771651 -0.963026 -17.733376 2.621019 -1e-06 1e-06 -0.0 -17.346426 -20.095222 -4.201779 21.757566 -1.638375 3.86643 2e-06 -6.338824 2e-06 -1.697588 -22.591749 -6.194011 -0.0 -4e-06 -3e-06 30.453222 -74.715263 164.189636 37.92453 -56.381527 5.105316 26.981142 -0.187776 -0.03011 -5.798117 1.210566 -8.916076 22.182112 -20.375887 49.933308 -16.701805 -16.74353 28.476524 -3e-06 -12.690601 0.0 16.09745 -17.392948 2.689603 -0.105919 -1.513855 -4.275881 -5.039041 -5.612869 -2.953556 5e-06 -11.02052 -4e-06 -6.111298 -15.895328 -3.84047 0.0 -2e-06 0.0 -10.28337 -5.680288 -4.341838 11.028293 -11.302402 -2.372633 -1.38427 -14.238575 -6.320118 -0.625438 -26.924179 -3.827604 -4.003258 -49.638771 -3.740472 -13.708524 -7.363475 -3.720939 18.14115 -14.052732 -3.242674 5e-06 -18.787264 -4e-06 -0.429712 -8.456039 2.555503 0.0 2e-06 0.0 -15.923536 -20.094481 -5.473585 30.41921 -7.190825 1.735926 1e-06 -8.162926 1e-06 -1.861904 -22.861464 -6.167942 -0.0 -4e-06 -0.0 -175.733887 -2.986817 -11.180844 10.266694 0.0163 0.033121 -80.254242 -1.361297 -2.88743 -4.151453 1.474523 2.20358 -0.999998 0.0 0.0 0.460122 -1.512069 0.829216 12.861436 -0.054363 0.008431 -79.172348 -4.701607 -5.586739 -4.279981 0.725792 1.712206 -1.000001 0.0 0.0 
0.0 0.0 0.0 0.0 -0.0 0.0 0.178766 100.025627 0.095658 89.599892 3.059928 90.047783 -1.485347 0.193077 0.039945 -11.249574 -0.359607 0.900143 16.839308 -0.750733 -1.042942 20.669497 -0.855465 2.65179 -2.57989 -0.616232 1.157357 -32.750504 0.684443 0.178276 7e-06 0.0 -0.0 0.020543 0.020207 -0.022656 0.047362 0.024412 -0.020415 0.068969 0.01293 -0.016835 -124.754921 -71.999718 137.41098 30.284407 -60.028702 7.837614 26.72051 0.406838 0.095982 -2.734881 0.25245 1.416749 17.636629 -26.322741 52.411209 -19.466663 -14.395598 29.410395 -1e-06 -8.774822 -4e-06 16.216816 -17.742735 5.999008 -0.609776 -1.795653 -3.889328 -4.807088 -11.046811 -2.937851 6e-06 -20.976017 1e-06 -5.019969 -25.033556 -4.031882 5e-06 0.0 1e-06 -10.634533 -5.68697 -3.565588 10.573276 -17.922953 -3.113902 4e-06 -13.821211 0.0 -0.501777 -31.181505 -4.027014 -11.371667 -59.586319 7.397901 -13.982714 -7.150198 -2.875042 13.77273 -8.401493 -3.218241 0.347737 -34.211555 0.771656 -0.963028 -17.733372 2.621022 -0.0 -0.0 -0.0 -17.346415 -20.095217 -4.201784 21.757557 -1.638377 3.866428 2e-06 -6.338823 2e-06 -1.697587 -22.591742 -6.194007 -1e-06 -3e-06 -0.0 30.236012 -74.668877 164.48671 37.930103 -56.339439 4.928425 26.885044 -0.217805 -0.054449 -5.81774 1.135259 -8.88587 22.182108 -20.375895 49.933319 -16.701813 -16.74353 28.476534 -4e-06 -12.690601 3e-06 16.112738 -17.386723 2.688524 -0.105919 -1.513856 -4.275879 -5.039041 -5.612872 -2.95356 5e-06 -11.020524 -4e-06 -6.111297 -15.895332 -3.840472 -0.0 2e-06 -1e-06 -10.28337 -5.680288 -4.34184 11.028294 -11.302406 -2.372634 -1.384268 -14.238581 -6.320123 -0.625437 -26.924191 -3.8276 -4.025752 -49.691063 -3.712057 -13.708527 -7.363475 -3.720936 18.14115 -14.052739 -3.242676 5e-06 -18.787266 -2e-06 -0.429712 -8.456043 2.555504 -1e-06 3e-06 0.0 -15.923536 -20.094482 -5.473585 30.419218 -7.190826 1.735924 2e-06 -8.162927 1e-06 -1.8619 -22.861467 -6.167944 0.0 -4e-06 -1e-06 -175.649857 -2.983452 -11.138822 10.106412 0.01383 0.057694 -80.194748 -1.36701 -2.920844 -4.097064 1.47874 2.208365 -1.0 0.0 0.0 0.509036 -1.476222 0.908127 12.759544 -0.054693 0.005459 -79.131638 -4.797457 -5.592214 -4.226685 0.726279 1.714446 -1.0 -0.0 -0.0 
0.0 0.0 0.0 0.0 -0.0 0.0 0.1525 100.027657 0.108183 89.602592 3.066215 90.047691 -1.50987 0.181441 0.044824 -11.27309 -0.347105 0.899458 16.913446 -0.742321 -1.021729 20.689457 -0.870667 2.658204 -2.608148 -0.591735 1.147357 -32.706951 0.678436 0.205867 7e-06 0.0 -0.0 0.018803 0.019909 -0.023702 0.039611 0.021019 -0.020196 0.060685 0.015772 -0.019658 -124.861336 -71.968895 137.537552 30.308767 -60.032837 7.995873 26.742563 0.380445 0.091812 -2.805713 0.217861 1.352217 17.636625 -26.322729 52.411194 -19.466661 -14.395597 29.410389 -1e-06 -8.774822 -2e-06 16.225805 -17.734735 5.987461 -0.609776 -1.795653 -3.889328 -4.807089 -11.04681 -2.93785 5e-06 -20.976019 1e-06 -5.01997 -25.033556 -4.031883 8e-06 -2e-06 -0.0 -10.634533 -5.68697 -3.565586 10.573274 -17.922949 -3.113905 2e-06 -13.821206 -1e-06 -0.501777 -31.181505 -4.027017 -11.363101 -59.560345 7.352068 -13.982713 -7.150198 -2.875041 13.77273 -8.401492 -3.218242 0.347735 -34.211552 0.771652 -0.963028 -17.733372 2.621019 1e-06 -1e-06 -1e-06 -17.346415 -20.095217 -4.20178 21.757557 -1.638374 3.866428 1e-06 -6.338823 2e-06 -1.697589 -22.591745 -6.194005 -0.0 -3e-06 -1e-06 30.062258 -74.610229 164.725861 37.959377 -56.290062 4.817863 26.805563 -0.204692 -0.066087 -5.870663 1.029154 -8.912316 22.182117 -20.375896 49.933331 -16.701815 -16.743528 28.476532 -4e-06 -12.690603 2e-06 16.12435 -17.361238 2.685288 -0.105918 -1.513855 -4.275881 -5.039041 -5.612873 -2.953558 5e-06 -11.020527 -4e-06 -6.111297 -15.895334 -3.840471 -0.0 1e-06 1e-06 -10.283372 -5.680288 -4.34184 11.028296 -11.302406 -2.372633 -1.384268 -14.238583 -6.320123 -0.625436 -26.924198 -3.827602 -4.037355 -49.662243 -3.70062 -13.708527 -7.363478 -3.720942 18.141153 -14.052742 -3.242674 8e-06 -18.787271 -5e-06 -0.429712 -8.456043 2.555506 -1e-06 2e-06 0.0 -15.923536 -20.094486 -5.473588 30.419218 -7.190831 1.735926 4e-06 -8.162929 1e-06 -1.861901 -22.861473 -6.167944 0.0 -6e-06 -1e-06 -175.589066 -2.976927 -11.10694 10.014539 0.009406 0.063035 -80.161789 -1.383879 -2.930823 -4.056639 1.472464 2.206809 -0.999998 0.0 -0.0 0.537526 -1.458546 0.953691 12.732974 -0.051234 -0.004085 -79.127739 -4.854211 -5.594045 -4.174077 0.723654 1.714685 -1.000002 -0.0 -0.0 
